<svg width="747" height="223" viewBox="0 0 747 223" fill="none" xmlns="http://www.w3.org/2000/svg">
<path d="M103.006 77.2805C103.094 74.4646 102.976 72.1073 103.305 69.8143C104.727 59.9124 109.734 54.9584 119.036 54.0374C127.369 53.2124 133.633 57.3281 137.047 65.8657C137.343 66.6074 137.67 67.3371 138.188 68.555C144.54 61.7472 151.819 57.0488 160.56 54.7858C170.826 52.1279 180.958 52.425 191.044 55.7571C208.39 61.4872 216.631 74.3805 219.54 91.579C221.388 102.508 220.35 113.518 220.506 124.489C220.685 137.148 220.627 149.812 220.518 162.472C220.412 174.806 213.49 181.333 201.318 180.825C191.368 180.41 185.04 173.755 184.946 163.139C184.805 147.314 184.895 131.487 184.904 115.661C184.907 111.33 184.747 107.037 184.105 102.723C182.443 91.5455 175.825 84.9652 165.206 84.3482C152.536 83.612 143.147 89.7904 140.434 100.617C139.165 105.681 139.24 110.851 139.139 116.007C138.823 132.156 139.744 148.316 138.624 164.46C137.924 174.565 132.753 179.889 122.61 180.697C112.166 181.529 105.809 176.952 103.628 167.178C103.001 164.371 103.004 161.559 103.003 158.733C102.996 131.745 103.003 104.757 103.006 77.2805Z" fill="white"/>
<path d="M480.961 54.9208C486.392 57.6421 488.575 62.1648 489.548 67.4241C489.94 67.4535 490.383 67.6048 490.487 67.4779C505.137 49.6575 534.345 47.4375 553.457 59.7019C564.052 66.5004 568.718 76.9232 571.312 88.6281C572.215 92.7033 572.452 96.8396 572.439 101.021C572.379 121.012 572.467 141.004 572.39 160.996C572.343 173.339 566.296 179.577 554.652 179.593C543.421 179.607 536.898 172.897 536.805 160.807C536.667 142.982 536.752 125.155 536.718 107.33C536.715 105.502 536.74 103.643 536.435 101.853C534.128 88.3433 526.316 82.4346 512.07 83.3259C500.415 84.055 491.786 93.2157 491.484 106.203C491.093 123.021 491.325 139.853 491.271 156.679C491.264 158.842 491.334 161.031 491.049 163.165C489.326 176.072 479.571 182.484 466.943 179.018C460.702 177.305 457.033 173.058 455.846 166.797C455.291 163.872 455.046 160.846 455.039 157.865C454.971 131.209 454.979 104.554 454.993 77.8983C454.995 75.2382 454.999 72.5537 455.332 69.9222C457.168 55.401 466.536 49.8203 480.961 54.9208Z" fill="white"/>
<path d="M362.847 221.534C355.993 222.973 349.513 223.296 343.138 221.586C335.172 219.448 331.491 212.899 332.677 203.633C333.608 196.355 338.407 191.951 346.5 192.05C360.241 192.218 365.111 183.552 368.544 172.275C369.107 170.426 368.293 168.691 367.577 166.978C355.637 138.408 343.713 109.832 331.797 81.2525C331.221 79.871 330.717 78.4574 330.226 77.0427C327.105 68.0529 329.267 60.823 336.327 56.5945C343.71 52.172 353.252 53.5099 359.246 59.7946C361.706 62.3738 363.338 65.419 364.559 68.746C371.095 86.558 377.663 104.358 384.24 122.156C384.969 124.129 385.822 126.056 387.135 129.267C388.976 124.529 390.411 121.057 391.684 117.526C397.384 101.713 403.018 85.8759 408.723 70.0642C410.369 65.5007 412.239 61.0206 416.235 57.9068C422.494 53.0298 431.577 52.7919 438.215 57.2796C444.422 61.4762 446.688 68.471 443.632 76.7939C439.79 87.2571 435.355 97.5031 431.144 107.83C419.893 135.423 408.673 163.028 397.346 190.589C390.909 206.25 380.397 217.54 362.847 221.534Z" fill="white"/>
<path d="M699.669 149.874C696.769 145.806 694.08 142.031 690.984 137.682C686.922 143.252 683.12 148.395 679.396 153.594C675.518 159.008 671.826 164.56 667.851 169.901C662.739 176.771 655.669 178.96 647.495 177.334C636.226 175.092 631.291 163.032 638.079 153.181C644.968 143.183 652.655 133.727 660.136 124.146C668.54 113.382 668.591 113.451 660.399 102.701C653.537 93.6956 646.43 84.856 639.997 75.5524C635.722 69.3705 636.261 62.515 640.645 57.4338C645.368 51.9596 651.415 49.8594 658.602 51.5853C664.095 52.9045 668.045 56.3292 671.206 60.817C676.48 68.3063 681.712 75.8261 687.014 83.2952C688.134 84.8726 688.868 86.8898 691.061 87.506C692.986 86.8185 693.659 84.9828 694.692 83.5338C700.105 75.9386 705.455 68.2985 710.838 60.6818C713.476 56.9498 716.576 53.718 720.966 52.0794C727.675 49.5752 736.404 51.814 740.573 57.0187C744.828 62.3295 745.319 70.4736 740.928 76.6309C733.292 87.3382 725.403 97.8794 717.23 108.181C714.207 111.992 714.085 114.562 717.186 118.394C726.195 129.524 735.121 140.754 743.439 152.402C750.847 162.775 745.624 175.398 733.604 177.362C725.586 178.672 718.741 176.551 713.825 169.681C709.173 163.179 704.529 156.671 699.669 149.874Z" fill="white"/>
<path d="M305.866 6.66504C316.167 9.40457 320.474 16.432 318.271 26.2703C316.863 32.5592 312.86 36.0539 306.36 36.3286C303.179 36.463 300.013 36.6176 296.977 37.5455C291.057 39.3543 286.684 46.6033 287.259 52.976C287.519 55.8531 289.329 55.9774 291.432 56.0301C295.923 56.1428 300.426 55.7769 304.899 56.567C312.737 57.9511 316.68 63.7368 316.199 73.2901C315.754 82.1382 311.295 87.014 303.198 87.3519C299.703 87.4977 296.197 87.502 292.7 87.4177C288.746 87.3224 287.134 88.8822 287.164 93.0687C287.324 115.733 287.256 138.399 287.237 161.065C287.226 175.002 281.143 180.867 267.27 180.399C259.102 180.124 253.345 175.461 251.791 167.468C251.161 164.223 250.965 160.85 250.956 157.535C250.896 136.536 250.959 115.537 250.946 94.538C250.942 88.1919 250.525 87.8062 244.198 87.4197C235.132 86.8661 230.814 82.0679 230.662 72.3791C230.502 62.1054 234.923 56.7325 244.115 56.0295C251.004 55.5027 251.234 55.3507 251.538 48.49C253.047 14.5171 279.697 2.95007 305.866 6.66504Z" fill="white"/>
<path d="M621.674 161.486C619.83 172.704 612.886 178.242 602.17 177.483C591.856 176.753 586.11 170.297 586.091 159.114C586.042 128.996 586.039 98.8773 586.096 68.7591C586.117 57.5637 593.13 50.5826 604.108 50.5509C614.635 50.5205 621.665 57.6505 621.684 68.6777C621.739 99.4615 621.696 130.245 621.674 161.486Z" fill="white"/>
<path d="M622.74 10.8782C625.989 18.8538 626.11 26.1932 620.439 32.7485C614.219 39.9379 606.225 41.7906 597.338 39.3356C588.792 36.9748 583.982 31.013 582.65 22.249C580.427 7.62821 596.214 -3.9417 611.261 1.27164C616.173 2.97349 620.092 5.86472 622.74 10.8782Z" fill="#BEEC3D"/>
<path d="M24.8627 52.7799C17.7362 52.3873 11.139 52.0975 4.54005 52.0524C0.419656 52.0243 -0.640766 54.1264 0.340964 58.1335C7.77542 88.4786 15.0369 118.866 22.4266 149.222C23.6165 154.11 24.6944 159.116 26.6719 163.702C30.0391 171.51 35.6447 177.502 44.4837 178.643C52.2832 179.65 60.2118 179.743 68.0912 180.006C71.6534 180.125 72.3987 178.208 71.5291 174.77C65.8977 152.506 60.4541 130.194 54.9391 107.9C52.0008 96.022 48.9441 84.1725 46.1225 72.2672C43.4871 61.1483 36.065 55.3667 24.8627 52.7799Z" fill="#04AF5D"/>
<path d="M79.4456 21.9046C79.519 11.7189 72.1136 1.4574 64.3561 0.259087C53.5552 -1.40933 42.8478 5.15811 39.8619 15.6355C37.307 24.6 42.5119 31.2709 48.4145 36.2889C53.0618 40.2399 59.2918 41.3134 66.1821 38.6422C74.1229 35.5638 77.9078 30.2939 79.4456 21.9046Z" fill="#BEEC3D"/>
</svg>
