<svg id="Layer_1" data-name="Layer 1" xmlns="http://www.w3.org/2000/svg" viewBox="0 0 586.57 160"><defs><style>.cls-1{fill:#04af5d;}.cls-2{fill:#fff;}.cls-3{fill:#f4ce2c;}</style></defs><path d="M1001.63,399.29a8.58,8.58,0,0,1,8.67-8.53,8.6,8.6,0,0,1,0,17.2A8.61,8.61,0,0,1,1001.63,399.29Z" transform="translate(-808.22 -373.24)"/><rect x="194.83" y="44.82" width="14.36" height="72.5" rx="3"/><path d="M1091.87,490.55h-8.35a3,3,0,0,1-3-3v-40.5c0-10.52-6.83-17.63-17.06-17.63-10.38,0-17.77,7.25-17.77,18.06v40.07a3,3,0,0,1-3,3h-8.36a3,3,0,0,1-3-3v-66.5a3,3,0,0,1,3-3h8.36a3,3,0,0,1,3,3v5a27.62,27.62,0,0,1,21.32-9.52c16.63,0,27.86,12.22,27.86,27.72v43.34A3,3,0,0,1,1091.87,490.55Z" transform="translate(-808.22 -373.24)"/><path d="M1105.12,418.2h10.93V404.26c0-9.8,6.12-16.91,17.49-16.91h9.22a3,3,0,0,1,3,3V397a3,3,0,0,1-3,3H1136c-3.41,0-5.54,2-5.54,6V418.2h12.35a3,3,0,0,1,3,3v6.5a3,3,0,0,1-3,3h-12.35v56.85a3,3,0,0,1-3,3h-8.36a3,3,0,0,1-3-3V430.7h-10.93a3,3,0,0,1-3-3v-6.5A3,3,0,0,1,1105.12,418.2Z" transform="translate(-808.22 -373.24)"/><path d="M1178,489.13l-28.37-66.91a3,3,0,0,1,2.76-4.17h9a3,3,0,0,1,2.77,1.86l21.27,51.88L1206,420a3,3,0,0,1,2.79-1.9h8.44a3,3,0,0,1,2.78,4.13l-33,81.59c-4.54,10.8-10.23,15.35-20.89,15.35h-6.53a3,3,0,0,1-3-3V509.9a3,3,0,0,1,3-3h3.69c5.4,0,8.52-2.14,10.8-7.82Z" transform="translate(-808.22 -373.24)"/><path d="M1288.46,490.55h-8.35a3,3,0,0,1-3-3v-40.5c0-10.52-6.83-17.63-17.06-17.63s-17.77,7.25-17.77,18.06v40.07a3,3,0,0,1-3,3h-8.36a3,3,0,0,1-3-3v-66.5a3,3,0,0,1,3-3h8.36a3,3,0,0,1,3,3v5a27.62,27.62,0,0,1,21.32-9.52c16.63,0,27.86,12.22,27.86,27.72v43.34A3,3,0,0,1,1288.46,490.55Z" transform="translate(-808.22 -373.24)"/><path d="M1304,399.29a8.59,8.59,0,0,1,8.67-8.53,8.6,8.6,0,0,1,0,17.2A8.62,8.62,0,0,1,1304,399.29Z" transform="translate(-808.22 -373.24)"/><rect x="497.17" y="44.82" width="14.36" height="72.5" rx="3"/><path d="M1354,453.31l-22.84-30.46a3,3,0,0,1,2.4-4.8h9a3,3,0,0,1,2.42,1.23l17,23.22,16.88-23.21a3,3,0,0,1,2.42-1.24h8.39a3,3,0,0,1,2.4,4.8l-22.55,30,24.68,32.87a3,3,0,0,1-2.4,4.8h-9a3,3,0,0,1-2.43-1.24l-18.72-25.77-18.86,25.78a3,3,0,0,1-2.42,1.23H1332a3,3,0,0,1-2.4-4.8Z" transform="translate(-808.22 -373.24)"/><rect class="cls-1" width="160" height="160" rx="38.4"/><path class="cls-2" d="M885,491.86c.89-1.21,1.84-2.39,2.65-3.66A71,71,0,0,0,894,474.09a185,185,0,0,0,7-25.56c1.76-8.54,3.16-17.15,4.06-25.83q.61-6,1.16-12c.28-3,2.51-5,5.82-5.05,2.12-.05,4.25,0,6.38,0,5,0,10,0,15,0a8.5,8.5,0,0,1,3,.51,4.94,4.94,0,0,1,3.3,5.05c-.09,2.81-.25,5.62-.59,8.41-.7,5.77-1.4,11.55-2.36,17.28a163.5,163.5,0,0,1-7.73,29.81,109.18,109.18,0,0,1-8.23,17.72c-2.66,4.53-5.67,8.79-9.85,12.1a18.84,18.84,0,0,1-10.34,4.42,17.35,17.35,0,0,1-11.53-3.43c.68-.72,1.34-1.46,2.06-2.13.12-.11.55,0,.78.14a10,10,0,0,0,4.65,1.17,11.18,11.18,0,0,0,7.53-3.17,33.21,33.21,0,0,0,7-9.3,108.29,108.29,0,0,0,8.23-19.71,192.57,192.57,0,0,0,6.23-25.6,216.14,216.14,0,0,0,2.94-24.44,3.55,3.55,0,0,0,0-.36h-11.4l-.54,5a226.67,226.67,0,0,1-5,28.57,167,167,0,0,1-9.4,28.4,73.43,73.43,0,0,1-9,15.83,29,29,0,0,1-4.1,4.47c-5,4.18-10.61,5.86-17,3.87a21.91,21.91,0,0,1-8.94-5.84,56.29,56.29,0,0,1-9.13-12.69A124.27,124.27,0,0,1,843,452.5a5.53,5.53,0,0,1-.19-1.15,2.79,2.79,0,0,1,2.83-3.19c.37,0,.74,0,1.1,0,6.36,0,12.72,0,19.07,0a6.09,6.09,0,0,1,2.06.41,2.73,2.73,0,0,1,1.74,2.12A141.08,141.08,0,0,0,874,466.88c2.53,7.56,5.59,14.86,10.17,21.44.52.74,1.08,1.45,1.65,2.22l-.9,1.27-1,.94c-.55-.65-1.12-1.29-1.66-1.95a71.61,71.61,0,0,1-7.89-12.58,124.36,124.36,0,0,1-8-20.61c-.5-1.68-1-3.37-1.47-5.06H847.86c.08.31.14.56.2.82.67,2.48,1.3,5,2,7.43a100.16,100.16,0,0,0,9.51,23.34,35.26,35.26,0,0,0,8.17,10.17,11.47,11.47,0,0,0,8,2.9C879.69,497,882.56,494.8,885,491.86Z" transform="translate(-808.22 -373.24)"/><path class="cls-3" d="M850.71,433a13.93,13.93,0,0,1-14.05-13.82,14,14,0,0,1,28.05.33A14,14,0,0,1,850.71,433Z" transform="translate(-808.22 -373.24)"/></svg>