<svg width="747" height="223" viewBox="0 0 747 223" fill="none" xmlns="http://www.w3.org/2000/svg">
<path d="M103.006 77.2805C103.094 74.4646 102.976 72.1073 103.305 69.8143C104.727 59.9124 109.734 54.9584 119.036 54.0374C127.369 53.2124 133.633 57.3281 137.047 65.8657C137.343 66.6074 137.67 67.3371 138.188 68.555C144.54 61.7472 151.819 57.0488 160.56 54.7858C170.826 52.1279 180.958 52.425 191.044 55.7571C208.39 61.4872 216.631 74.3805 219.54 91.579C221.388 102.508 220.35 113.518 220.506 124.489C220.685 137.148 220.627 149.812 220.518 162.472C220.412 174.806 213.49 181.333 201.318 180.825C191.368 180.41 185.04 173.755 184.946 163.139C184.805 147.314 184.895 131.487 184.904 115.661C184.907 111.33 184.747 107.037 184.105 102.723C182.443 91.5455 175.825 84.9652 165.206 84.3482C152.536 83.612 143.147 89.7904 140.434 100.617C139.165 105.681 139.24 110.851 139.139 116.007C138.823 132.156 139.744 148.316 138.624 164.46C137.924 174.565 132.753 179.889 122.61 180.697C112.166 181.529 105.809 176.952 103.628 167.178C103.001 164.371 103.004 161.559 103.003 158.733C102.996 131.745 103.003 104.757 103.006 77.2805Z" fill="black"/>
<path d="M480.962 54.9208C486.393 57.6421 488.576 62.1648 489.549 67.4241C489.941 67.4535 490.384 67.6048 490.488 67.4779C505.138 49.6575 534.346 47.4375 553.458 59.7019C564.053 66.5004 568.719 76.9232 571.313 88.6281C572.216 92.7033 572.453 96.8396 572.44 101.021C572.38 121.012 572.467 141.004 572.391 160.996C572.344 173.339 566.297 179.577 554.653 179.593C543.422 179.607 536.899 172.897 536.806 160.807C536.668 142.982 536.753 125.155 536.719 107.33C536.716 105.502 536.741 103.643 536.436 101.853C534.129 88.3433 526.317 82.4346 512.071 83.3259C500.416 84.055 491.787 93.2157 491.485 106.203C491.094 123.021 491.326 139.853 491.272 156.679C491.265 158.842 491.335 161.031 491.05 163.165C489.327 176.072 479.572 182.484 466.944 179.018C460.703 177.305 457.034 173.058 455.847 166.797C455.292 163.872 455.047 160.846 455.04 157.865C454.972 131.209 454.98 104.554 454.994 77.8983C454.996 75.2382 455 72.5537 455.333 69.9222C457.169 55.401 466.537 49.8203 480.962 54.9208Z" fill="black"/>
<path d="M362.846 221.534C355.992 222.973 349.512 223.296 343.137 221.586C335.171 219.448 331.49 212.899 332.676 203.633C333.607 196.355 338.406 191.951 346.499 192.05C360.24 192.218 365.11 183.552 368.543 172.275C369.106 170.426 368.292 168.691 367.576 166.978C355.636 138.408 343.712 109.832 331.796 81.2525C331.22 79.871 330.716 78.4574 330.225 77.0427C327.104 68.0529 329.266 60.823 336.326 56.5945C343.709 52.172 353.251 53.5099 359.245 59.7946C361.705 62.3738 363.337 65.419 364.558 68.746C371.094 86.558 377.662 104.358 384.239 122.156C384.968 124.129 385.821 126.056 387.134 129.267C388.975 124.529 390.41 121.057 391.683 117.526C397.383 101.713 403.017 85.8759 408.722 70.0642C410.368 65.5007 412.238 61.0206 416.234 57.9068C422.493 53.0298 431.576 52.7919 438.214 57.2796C444.421 61.4762 446.687 68.471 443.631 76.7939C439.789 87.2571 435.354 97.5031 431.143 107.83C419.892 135.423 408.672 163.028 397.345 190.589C390.908 206.25 380.396 217.54 362.846 221.534Z" fill="black"/>
<path d="M699.668 149.874C696.768 145.806 694.079 142.031 690.983 137.682C686.921 143.252 683.119 148.395 679.395 153.594C675.517 159.008 671.825 164.56 667.85 169.901C662.738 176.771 655.668 178.96 647.494 177.334C636.225 175.092 631.29 163.032 638.078 153.181C644.967 143.183 652.654 133.727 660.135 124.146C668.539 113.382 668.59 113.451 660.398 102.701C653.536 93.6956 646.429 84.856 639.996 75.5524C635.721 69.3705 636.26 62.515 640.644 57.4338C645.367 51.9596 651.414 49.8594 658.601 51.5853C664.094 52.9045 668.044 56.3292 671.205 60.817C676.479 68.3063 681.711 75.8261 687.013 83.2952C688.133 84.8726 688.867 86.8898 691.06 87.506C692.985 86.8185 693.658 84.9828 694.691 83.5338C700.104 75.9386 705.454 68.2985 710.837 60.6818C713.475 56.9498 716.575 53.718 720.965 52.0794C727.674 49.5752 736.403 51.814 740.573 57.0187C744.827 62.3295 745.318 70.4736 740.927 76.6309C733.291 87.3382 725.402 97.8794 717.229 108.181C714.206 111.992 714.084 114.562 717.185 118.394C726.194 129.524 735.12 140.754 743.438 152.402C750.846 162.775 745.623 175.398 733.604 177.362C725.585 178.672 718.74 176.551 713.824 169.681C709.172 163.179 704.528 156.671 699.668 149.874Z" fill="black"/>
<path d="M305.866 6.66504C316.167 9.40457 320.474 16.432 318.271 26.2703C316.863 32.5592 312.86 36.0539 306.36 36.3286C303.179 36.463 300.013 36.6176 296.977 37.5455C291.057 39.3543 286.684 46.6033 287.259 52.976C287.519 55.8531 289.329 55.9774 291.432 56.0301C295.923 56.1428 300.426 55.7769 304.899 56.567C312.737 57.9511 316.68 63.7368 316.199 73.2901C315.754 82.1382 311.295 87.014 303.198 87.3519C299.703 87.4977 296.197 87.502 292.7 87.4177C288.746 87.3224 287.134 88.8822 287.164 93.0687C287.324 115.733 287.256 138.399 287.237 161.065C287.226 175.002 281.143 180.867 267.27 180.399C259.102 180.124 253.345 175.461 251.791 167.468C251.161 164.223 250.965 160.85 250.956 157.535C250.896 136.536 250.959 115.537 250.946 94.538C250.942 88.1919 250.525 87.8062 244.198 87.4197C235.132 86.8661 230.814 82.0679 230.662 72.3791C230.502 62.1054 234.923 56.7325 244.115 56.0295C251.004 55.5027 251.234 55.3507 251.538 48.49C253.047 14.5171 279.697 2.95007 305.866 6.66504Z" fill="black"/>
<path d="M621.675 161.486C619.831 172.704 612.887 178.242 602.171 177.483C591.857 176.753 586.111 170.297 586.092 159.114C586.043 128.996 586.04 98.8773 586.097 68.7591C586.118 57.5637 593.131 50.5826 604.109 50.5509C614.636 50.5205 621.665 57.6505 621.685 68.6777C621.74 99.4615 621.696 130.245 621.675 161.486Z" fill="black"/>
<path d="M622.74 10.8782C625.989 18.8538 626.11 26.1932 620.439 32.7485C614.219 39.9379 606.225 41.7906 597.338 39.3356C588.792 36.9748 583.982 31.013 582.65 22.249C580.427 7.62821 596.214 -3.9417 611.261 1.27164C616.173 2.97349 620.092 5.86472 622.74 10.8782Z" fill="#BEEC3D"/>
<path d="M24.8627 52.7799C17.7362 52.3873 11.139 52.0975 4.54005 52.0524C0.419656 52.0243 -0.640766 54.1264 0.340964 58.1335C7.77542 88.4786 15.0369 118.866 22.4266 149.222C23.6165 154.11 24.6944 159.116 26.6719 163.702C30.0391 171.51 35.6447 177.502 44.4837 178.643C52.2832 179.65 60.2118 179.743 68.0912 180.006C71.6534 180.125 72.3987 178.208 71.5291 174.77C65.8977 152.506 60.4541 130.194 54.9391 107.9C52.0008 96.022 48.9441 84.1725 46.1225 72.2672C43.4871 61.1483 36.065 55.3667 24.8627 52.7799Z" fill="#04AF5D"/>
<path d="M79.4456 21.9046C79.519 11.7189 72.1136 1.4574 64.3561 0.259087C53.5552 -1.40933 42.8478 5.15811 39.8619 15.6355C37.307 24.6 42.5119 31.2709 48.4145 36.2889C53.0618 40.2399 59.2918 41.3134 66.1821 38.6422C74.1229 35.5638 77.9078 30.2939 79.4456 21.9046Z" fill="#BEEC3D"/>
</svg>
